# xmcd CD database file
#
# Track frame offsets:
#	150
#	11232
#	23970
#	35127
#	46667
#	58727
#	72670
#	84667
#	96827
#	109325
#	122257
#	131507
#	142195
#	152605
#	164072
#	175242
#	185700
#	197552
#	209077
#	221040
#
# Disc length: 3101 seconds
#
# Revision: 0
# Processed by: cddbd v1.5.2PL0 Copyright (c) Steve Scherf et al.
# Submitted via: CDex 1.51
#
DISCID=370c1b14
DTITLE=Hank Thompson - The Golden Era Of Capital Country
DYEAR=1990
DGENRE=Country
TTITLE0=Swing Wide Your Gate Of Love
TTITLE1=Yesterday's Girl
TTITLE2=What Are We Gonna Do About The Moonlight
TTITLE3=How Cold Hearted Can You Get
TTITLE4=You Broke My Heart
TTITLE5=A Girl In The Night
TTITLE6=California Woman
TTITLE7=Soft Lips
TTITLE8=Today
TTITLE9=Second Hand Gal
TTITLE10=Rockin' The Ocean
TTITLE11=You Remember Me
TTITLE12=Give A Little, Take A Little
TTITLE13=Cryin' In The Deep Blue Sea
TTITLE14=Headin' Down The Wrong Highway
TTITLE15=Drivin' Nails In My Coffin
TTITLE16=You Nearly Lose Your Mind
TTITLE17=I'll Keep On Loving You
TTITLE18=Mary Had A Little Lamb
TTITLE19=Jersey Bounce
EXTD=YEAR: 1990
EXTT0=
EXTT1=
EXTT2=
EXTT3=
EXTT4=
EXTT5=
EXTT6=
EXTT7=
EXTT8=
EXTT9=
EXTT10=
EXTT11=
EXTT12=
EXTT13=
EXTT14=
EXTT15=
EXTT16=
EXTT17=
EXTT18=
EXTT19=
PLAYORDER=
